SplineFontDB: 3.2
FontName: ProductionIcons
FullName: ProductionIcons
FamilyName: ProductionIcons
Weight: Regular
Copyright: Apache-2.0 License\nThis file contains custom icons created by Charles Carley, as well as icons copied from the following source https://github.com/google/material-design-icons\n\n
UComments: "2020-8-6: Created with FontForge (http://fontforge.org)"
Version: 001.000
ItalicAngle: 0
UnderlinePosition: -100
UnderlineWidth: 50
Ascent: 800
Descent: 200
InvalidEm: 0
LayerCount: 2
Layer: 0 0 "Back" 1
Layer: 1 0 "Fore" 0
XUID: [1021 83 1130117904 2965]
StyleMap: 0x0000
FSType: 0
OS2Version: 0
OS2_WeightWidthSlopeOnly: 0
OS2_UseTypoMetrics: 1
CreationTime: 1596708524
ModificationTime: 1596716331
OS2TypoAscent: 0
OS2TypoAOffset: 1
OS2TypoDescent: 0
OS2TypoDOffset: 1
OS2TypoLinegap: 90
OS2WinAscent: 0
OS2WinAOffset: 1
OS2WinDescent: 0
OS2WinDOffset: 1
HheadAscent: 0
HheadAOffset: 1
HheadDescent: 0
HheadDOffset: 1
OS2Vendor: 'PfEd'
MarkAttachClasses: 1
DEI: 91125
Encoding: ISO8859-1
UnicodeInterp: none
NameList: AGL For New Fonts
DisplaySize: -48
AntiAlias: 1
FitToEm: 0
WinInfo: 0 38 12
BeginPrivate: 0
EndPrivate
Grid
999.043945312 -197.435546875 m 1
 0.955078125 -197.435546875 l 1
 0.955078125 800.650390625 l 1
 999.043945312 800.650390625 l 1
 999.043945312 -197.435546875 l 1
-1.650390625 -200.041992188 m 1
 1001.64941406 -200.041992188 l 1
 1001.64941406 803.256835938 l 1
 -1.650390625 803.256835938 l 1
 -1.650390625 -200.041992188 l 1
0.34375 802.64453125 m 1
 -1.0380859375 801.26171875 l 1
 999.65625 -199.430664062 l 1
 1001.0390625 -198.048828125 l 1
 0.34375 802.64453125 l 1
-1.0390625 -198.047851562 m 1
 0.34375 -199.430664062 l 1
 1001.03808594 801.262695312 l 1
 999.655273438 802.645507812 l 1
 -1.0390625 -198.047851562 l 1
275.561523438 300.62890625 m 0
 275.561523438 424.586914062 376.044921875 525.0703125 500 525.0703125 c 0
 623.956054688 525.0703125 724.439453125 424.586914062 724.439453125 300.62890625 c 0

StartChar: A
Encoding: 65 65 0
Width: 1000
Flags: HW
LayerCount: 2
Fore
SplineSet
792 247 m 5
 542 247 l 5
 542 -3 l 5
 458 -3 l 5
 458 247 l 5
 208 247 l 5
 208 330 l 5
 458 330 l 5
 458 580 l 5
 542 580 l 5
 542 330 l 5
 792 330 l 5
 792 247 l 5
EndSplineSet
EndChar

StartChar: B
Encoding: 66 66 1
Width: 1000
Flags: HW
LayerCount: 2
Fore
SplineSet
124.947265625 81.25 m 5
 585.78125 542.083007812 l 517
 742.03125 385.833007812 l 517
 281.197265625 -75 l 517
 124.947265625 -75 l 517
 124.947265625 81.25 l 5
862.865234375 506.666992188 m 516
 786.615234375 430.416992188 l 517
 630.365234375 586.666992188 l 517
 706.615234375 662.916992188 l 518
 722.865234375 679.166992188 749.115234375 679.166992188 765.365234375 662.916992188 c 518
 862.865234375 565.416992188 l 518
 879.115234375 549.166992188 879.115234375 522.916992188 862.865234375 506.666992188 c 516
EndSplineSet
EndChar

StartChar: C
Encoding: 67 67 2
Width: 1000
Flags: HW
LayerCount: 2
Fore
SplineSet
250 8.3330078125 m 2
 250 508.333007812 l 1
 750 508.333007812 l 1
 750 8.3330078125 l 2
 750 -37.5 712.5 -75 666.666992188 -75 c 2
 333.333007812 -75 l 2
 287.5 -75 250 -37.5 250 8.3330078125 c 2
791.666992188 633.333007812 m 1
 791.666992188 550 l 1
 208.333007812 550 l 1
 208.333007812 633.333007812 l 1
 354.166992188 633.333007812 l 1
 395.833007812 675 l 1
 604.166992188 675 l 1
 645.833007812 633.333007812 l 1
 791.666992188 633.333007812 l 1
EndSplineSet
EndChar

StartChar: D
Encoding: 68 68 3
Width: 1000
Flags: HW
LayerCount: 2
Fore
SplineSet
668.58984375 615 m 6
 500.000976562 615 l 5
 331.412109375 615 l 6
 292.024414062 615 260.336914062 597.271484375 260.336914062 575.291015625 c 6
 260.336914062 564.995117188 l 5
 269.303710938 560.200195312 274.666992188 554.224609375 274.666992188 547.73046875 c 6
 274.666992188 409.9296875 l 5
 260.859375 406.48828125 253.125 402.669921875 253.125 398.642578125 c 4
 253.125 394.616210938 260.859375 390.801757812 274.666992188 387.359375 c 5
 274.666992188 143.848632812 l 5
 260.859375 140.40625 253.125 136.591796875 253.125 132.565429688 c 4
 253.125 128.538085938 260.859375 124.719726562 274.666992188 121.27734375 c 5
 274.666992188 -16.5224609375 l 6
 274.666992188 -23.0166015625 269.303710938 -28.9921875 260.336914062 -33.787109375 c 5
 260.336914062 -44.0830078125 l 6
 260.336914062 -66.064453125 292.024414062 -83.7919921875 331.412109375 -83.7919921875 c 6
 500.000976562 -83.7919921875 l 5
 668.58984375 -83.7919921875 l 6
 707.975585938 -83.7919921875 739.665039062 -66.064453125 739.665039062 -44.0830078125 c 6
 739.665039062 -33.787109375 l 5
 730.697265625 -28.9921875 725.333984375 -23.0166015625 725.333984375 -16.5224609375 c 6
 725.333984375 121.27734375 l 5
 739.141601562 124.719726562 746.875 128.538085938 746.875 132.565429688 c 4
 746.875 136.591796875 739.141601562 140.40625 725.333984375 143.848632812 c 5
 725.333984375 387.359375 l 5
 739.141601562 390.801757812 746.875 394.616210938 746.875 398.642578125 c 4
 746.875 402.669921875 739.141601562 406.48828125 725.333984375 409.9296875 c 5
 725.333984375 547.73046875 l 6
 725.333984375 554.224609375 730.697265625 560.200195312 739.665039062 564.995117188 c 5
 739.665039062 575.291015625 l 6
 739.665039062 597.271484375 707.975585938 615 668.58984375 615 c 6
269.8203125 264.580078125 m 4
 270.005859375 264.580078125 270.153320312 264.21875 270.153320312 263.774414062 c 4
 270.153320312 263.329101562 270.005859375 262.96875 269.8203125 262.96875 c 4
 269.635742188 262.96875 269.48828125 263.329101562 269.48828125 263.774414062 c 4
 269.48828125 264.21875 269.635742188 264.580078125 269.8203125 264.580078125 c 4
EndSplineSet
Validated: 9
EndChar

StartChar: E
Encoding: 69 69 4
Width: 1000
Flags: H
LayerCount: 2
Fore
SplineSet
812.353515625 618.12890625 m 6
 837.353515625 592.008789062 l 6
 858.849609375 569.55078125 859.846679688 532.145507812 835.616210938 512.669921875 c 6
 580.88671875 307.931640625 l 5
 643.560546875 240.32421875 l 6
 667.091796875 215.740234375 666.243164062 177.00390625 641.659179688 153.473632812 c 6
 616.83203125 129.7109375 l 5
 344.490234375 414.24609375 l 6
 343.26171875 415.530273438 341.989257812 416.745117188 340.680664062 417.899414062 c 5
 365.670898438 441.818359375 l 6
 390.255859375 465.349609375 428.568359375 464.091796875 452.521484375 439.91796875 c 6
 507.075195312 384.860351562 l 5
 733.013671875 619.8671875 l 6
 755.471679688 641.36328125 790.857421875 640.586914062 812.353515625 618.12890625 c 6
324.168945312 399.349609375 m 5
 597.413085938 113.870117188 l 5
 566.387695312 74.6279296875 535.387695312 -8.5673828125 441.678710938 -35.189453125 c 5
 336.606445312 61.984375 227.24609375 155.346679688 146.370117188 274.021484375 c 5
 208.23046875 307.719726562 276.788085938 320.5625 324.168945312 399.349609375 c 5
EndSplineSet
EndChar

StartChar: F
Encoding: 70 70 5
Width: 1000
Flags: H
LayerCount: 2
Fore
SplineSet
124.947265625 81.25 m 1
 585.78125 542.083007812 l 1
 742.03125 385.833007812 l 1
 281.197265625 -75 l 1
 124.947265625 -75 l 1
 124.947265625 81.25 l 1
862.865234375 506.666992188 m 0
 786.615234375 430.416992188 l 1
 630.365234375 586.666992188 l 1
 706.615234375 662.916992188 l 2
 722.865234375 679.166992188 749.115234375 679.166992188 765.365234375 662.916992188 c 2
 862.865234375 565.416992188 l 2
 879.115234375 549.166992188 879.115234375 522.916992188 862.865234375 506.666992188 c 0
EndSplineSet
Validated: 33
EndChar

StartChar: G
Encoding: 71 71 45
Width: 1000
Flags: HW
LayerCount: 2
Fore
SplineSet
420.416992188 150.416992188 m 1
 527.916992188 258.333007812 l 1
 125 258.333007812 l 1
 125 341.666992188 l 1
 527.916992188 341.666992188 l 1
 420.416992188 449.583007812 l 1
 479.166992188 508.333007812 l 1
 687.5 300 l 1
 479.166992188 91.6669921875 l 1
 420.416992188 150.416992188 l 1
791.666992188 675 m 2
 837.5 675 875 637.5 875 591.666992188 c 2
 875 8.3330078125 l 2
 875 -37.5 837.5 -75 791.666992188 -75 c 2
 208.333007812 -75 l 2
 162.083007812 -75 125 -37.5 125 8.3330078125 c 2
 125 175 l 1
 208.333007812 175 l 1
 208.333007812 8.3330078125 l 1
 791.666992188 8.3330078125 l 1
 791.666992188 591.666992188 l 1
 208.333007812 591.666992188 l 1
 208.333007812 425 l 1
 125 425 l 1
 125 591.666992188 l 2
 125 637.5 162.083007812 675 208.333007812 675 c 2
 791.666992188 675 l 2
EndSplineSet
EndChar

StartChar: H
Encoding: 72 72 46
Width: 1000
Flags: HW
LayerCount: 2
Fore
SplineSet
169.025390625 739 m 1
 246.16015625 607.493164062 l 1
 188.306640625 607.493164062 l 1
 188.30078125 54.630859375 l 1
 319.791015625 335.381835938 l 1
 441.212890625 202.379882812 l 1
 553.287109375 426.223632812 l 1
 650.896484375 481.043945312 l 1
 635.099609375 508.360351562 l 1
 720.09765625 507.844726562 l 1
 677.22265625 435.512695312 l 1
 661.42578125 462.829101562 l 1
 569.478515625 411.193359375 l 1
 446.400390625 165.370117188 l 1
 325.576171875 297.715820312 l 1
 200.017578125 29.6162109375 l 1
 774.66796875 29.6162109375 l 1
 774.66796875 86.630859375 l 1
 908.10546875 10.6142578125 l 1
 774.66796875 -65.40234375 l 1
 774.66796875 -8.3916015625 l 1
 149.82421875 -8.3916015625 l 1
 149.82421875 196.6796875 149.646484375 402.26171875 149.7421875 607.493164062 c 1
 91.89453125 607.493164062 l 1
 169.025390625 739 l 1
EndSplineSet
EndChar

StartChar: I
Encoding: 73 73 47
Width: 1000
Flags: HW
LayerCount: 2
Fore
SplineSet
685.206054688 42.0146484375 m 1
 738.413085938 42.0146484375 l 1
 738.413085938 92.23046875 l 1
 854.237304688 25.279296875 l 1
 738.413085938 -41.6728515625 l 1
 738.413085938 8.5390625 l 1
 196.045898438 8.5390625 l 1
 196.045898438 189.155273438 195.892578125 370.220703125 195.973632812 550.977539062 c 1
 145.762695312 550.977539062 l 1
 212.713867188 666.801757812 l 1
 279.665039062 550.977539062 l 1
 229.450195312 550.977539062 l 1
 229.4453125 64.0458984375 l 1
 343.579101562 311.31640625 l 1
 448.97265625 194.17578125 l 1
 539.842773438 391.908203125 l 2
 545.357421875 395.149414062 660.240234375 463.61328125 660.240234375 463.61328125 c 1
 685.206054688 42.0146484375 l 1
EndSplineSet
EndChar

StartChar: J
Encoding: 74 74 48
Width: 1000
Flags: HW
LayerCount: 2
Fore
SplineSet
260.08984375 673.58984375 m 5
 324.120117188 562.8203125 l 5
 276.095703125 562.8203125 l 5
 274.037109375 414.350585938 276.095703125 76.06640625 276.095703125 76.06640625 c 5
 341.095703125 76.06640625 l 5
 341.095703125 454.227539062 l 5
 401.7890625 454.227539062 l 5
 401.7890625 76.06640625 l 5
 465.04296875 76.06640625 l 5
 465.04296875 182.288085938 l 5
 525.736328125 182.288085938 l 5
 525.736328125 76.06640625 l 5
 588.989257812 76.06640625 l 5
 588.989257812 337.569335938 l 5
 649.682617188 337.569335938 l 5
 649.682617188 76.06640625 l 5
 762.849609375 76.06640625 l 5
 762.849609375 124.090820312 l 5
 873.619140625 60.060546875 l 5
 762.849609375 -3.96875 l 5
 762.849609375 44.0517578125 l 5
 244.149414062 44.0517578125 l 5
 244.149414062 216.786132812 244.002929688 389.951171875 244.081054688 562.8203125 c 5
 196.060546875 562.8203125 l 5
 260.08984375 673.58984375 l 5
EndSplineSet
EndChar

StartChar: L
Encoding: 76 76 72
Width: 1000
Flags: HW
LayerCount: 2
Fore
SplineSet
125 633.333007812 m 1
 125 758.333007812 l 1
 208.333007812 758.333007812 l 1
 208.333007812 633.333007812 l 1
 333.333007812 633.333007812 l 1
 333.333007812 550 l 1
 208.333007812 550 l 1
 208.333007812 425 l 1
 125 425 l 1
 125 550 l 1
 0 550 l 1
 0 633.333007812 l 1
 125 633.333007812 l 1
250 383.333007812 m 1
 250 508.333007812 l 1
 375 508.333007812 l 1
 375 633.333007812 l 1
 666.666992188 633.333007812 l 1
 742.916992188 550 l 1
 875 550 l 2
 920.833007812 550 958.333007812 512.5 958.333007812 466.666992188 c 2
 958.333007812 -33.3330078125 l 2
 958.333007812 -79.1669921875 920.833007812 -116.666992188 875 -116.666992188 c 2
 208.333007812 -116.666992188 l 2
 162.5 -116.666992188 125 -79.1669921875 125 -33.3330078125 c 2
 125 383.333007812 l 1
 250 383.333007812 l 1
541.666992188 8.3330078125 m 0
 656.666992188 8.3330078125 750 101.666992188 750 216.666992188 c 0
 750 331.666992188 656.666992188 425 541.666992188 425 c 0
 426.666992188 425 333.333007812 331.666992188 333.333007812 216.666992188 c 0
 333.333007812 101.666992188 426.666992188 8.3330078125 541.666992188 8.3330078125 c 0
408.333007812 216.666992188 m 0
 408.333007812 290.416992188 467.916992188 350 541.666992188 350 c 0
 615.416992188 350 675 290.416992188 675 216.666992188 c 0
 675 142.916992188 615.416992188 83.3330078125 541.666992188 83.3330078125 c 0
 467.916992188 83.3330078125 408.333007812 142.916992188 408.333007812 216.666992188 c 0
EndSplineSet
EndChar

StartChar: M
Encoding: 77 77 73
Width: 1000
Flags: HW
LayerCount: 2
Fore
SplineSet
0 800 m 1
 1000 800 l 1
 1000 -200 l 1
 0 -200 l 1
 0 800 l 1
0 800 m 1
 0 -200 l 1
 1000 -200 l 1
 1000 800 l 1
 0 800 l 1
0 800 m 1
 1000 800 l 1
 1000 -200 l 1
 0 -200 l 1
 0 800 l 1
0 800 m 1
 0 -200 l 1
 1000 -200 l 1
 1000 800 l 1
 0 800 l 1
500 508.333007812 m 0
 472.916992188 508.333007812 447.5 502.916992188 423.75 493.333007812 c 2
 333.75 583.333007812 l 1
 385.416992188 602.083007812 441.25 612.5 499.583007812 612.5 c 0
 707.916992188 612.5 885.833007812 482.916992188 957.916992188 300 c 0
 927.5 222.5 877.916992188 154.583007812 815 102.083007812 c 2
 693.333007812 223.75 l 2
 702.916992188 247.5 708.333007812 272.916992188 708.333007812 300 c 0
 708.333007812 415 615 508.333007812 500 508.333007812 c 0
83.3330078125 622.083007812 m 1
 136.25 675 l 1
 875 -63.75 l 1
 822.083007812 -116.666992188 l 1
 700 5 l 1
 682.5 22.5 l 2
 626.25 0 564.583007812 -12.5 500 -12.5 c 0
 291.666992188 -12.5 113.75 117.083007812 41.6669921875 300 c 0
 74.1669921875 382.5 128.333007812 454.166992188 197.5 507.916992188 c 1
 178.333007812 527.083007812 l 1
 83.3330078125 622.083007812 l 1
313.75 391.666992188 m 1
 300 363.75 291.666992188 332.916992188 291.666992188 300 c 0
 291.666992188 185 385 91.6669921875 500 91.6669921875 c 0
 532.916992188 91.6669921875 563.75 100 591.666992188 113.75 c 1
 527.083007812 178.333007812 l 2
 518.333007812 176.25 509.166992188 175 500 175 c 0
 430.833007812 175 375 230.833007812 375 300 c 0
 375 309.166992188 376.25 318.333007812 378.333007812 327.083007812 c 2
 313.75 391.666992188 l 1
493.333007812 424.166992188 m 1
 500.416992188 424.583007812 l 2
 569.583007812 424.583007812 625.416992188 368.75 625.416992188 299.583007812 c 2
 624.583007812 292.916992188 l 1
 493.333007812 424.166992188 l 1
EndSplineSet
EndChar

StartChar: N
Encoding: 78 78 74
Width: 1000
Flags: HWO
LayerCount: 2
Fore
SplineSet
500 612.5 m 0
 708.333007812 612.5 886.25 482.916992188 958.333007812 300 c 0
 886.25 117.083007812 708.333007812 -12.5 500 -12.5 c 0
 291.666992188 -12.5 113.75 117.083007812 41.6669921875 300 c 0
 113.75 482.916992188 291.666992188 612.5 500 612.5 c 0
500 91.6669921875 m 0
 615 91.6669921875 708.333007812 185 708.333007812 300 c 0
 708.333007812 415 615 508.333007812 500 508.333007812 c 0
 385 508.333007812 291.666992188 415 291.666992188 300 c 0
 291.666992188 185 385 91.6669921875 500 91.6669921875 c 0
500 425 m 0
 569.166992188 425 625 369.166992188 625 300 c 0
 625 230.833007812 569.166992188 175 500 175 c 0
 430.833007812 175 375 230.833007812 375 300 c 0
 375 369.166992188 430.833007812 425 500 425 c 0
EndSplineSet
EndChar

StartChar: O
Encoding: 79 79 75
Width: 1000
Flags: HW
LayerCount: 2
Fore
SplineSet
875 378.333007812 m 1
 592.5 378.333007812 l 1
 706.666992188 495.833007812 l 2
 592.916992188 608.333007812 408.75 612.5 295 500 c 0
 181.25 387.083007812 181.25 205 295 92.0830078125 c 0
 408.75 -20.8330078125 592.916992188 -20.8330078125 706.666992188 92.0830078125 c 0
 763.333007812 147.916992188 791.666992188 213.333007812 791.666992188 295.833007812 c 1
 875 295.833007812 l 1
 875 213.333007812 838.333007812 106.25 765 33.75 c 0
 618.75 -111.25 381.25 -111.25 235 33.75 c 0
 89.1669921875 178.333007812 87.9169921875 413.333007812 234.166992188 557.916992188 c 0
 380.416992188 702.5 615 702.5 761.25 557.916992188 c 1
 875 675 l 1
 875 378.333007812 l 1
520.833007812 466.666992188 m 1
 520.833007812 289.583007812 l 1
 666.666992188 202.916992188 l 1
 636.666992188 152.5 l 1
 458.333007812 258.333007812 l 1
 458.333007812 466.666992188 l 1
 520.833007812 466.666992188 l 1
EndSplineSet
EndChar

StartChar: P
Encoding: 80 80 76
Width: 1000
Flags: HW
LayerCount: 2
Fore
SplineSet
520.833007812 466.666992188 m 0
 714.583007812 466.666992188 878.333007812 340.416992188 936.25 165.833007812 c 1
 837.5 133.333007812 l 2
 793.75 266.25 668.333007812 362.5 520.833007812 362.5 c 0
 439.166992188 362.5 365.416992188 332.5 307.5 284.166992188 c 1
 458.333007812 133.333007812 l 1
 83.3330078125 133.333007812 l 1
 83.3330078125 508.333007812 l 1
 233.333007812 358.333007812 l 2
 310.416992188 425.416992188 410.416992188 466.666992188 520.833007812 466.666992188 c 0
EndSplineSet
EndChar

StartChar: Q
Encoding: 81 81 77
Width: 1000
Flags: HW
LayerCount: 2
Fore
SplineSet
500 633.333007812 m 1
 684.166992188 633.333007812 833.333007812 484.166992188 833.333007812 300 c 0
 833.333007812 234.583007812 814.166992188 173.75 781.666992188 122.5 c 1
 720.833007812 183.333007812 l 2
 739.583007812 217.916992188 750 257.916992188 750 300 c 0
 750 437.916992188 637.916992188 550 500 550 c 1
 500 425 l 1
 333.333007812 591.666992188 l 1
 500 758.333007812 l 1
 500 633.333007812 l 1
500 50 m 1
 500 175 l 1
 666.666992188 8.3330078125 l 1
 500 -158.333007812 l 1
 500 -33.3330078125 l 1
 315.833007812 -33.3330078125 166.666992188 115.833007812 166.666992188 300 c 0
 166.666992188 365.416992188 185.833007812 426.25 218.333007812 477.5 c 1
 279.166992188 416.666992188 l 2
 260.416992188 382.083007812 250 342.083007812 250 300 c 0
 250 162.083007812 362.083007812 50 500 50 c 1
EndSplineSet
EndChar

StartChar: R
Encoding: 82 82 78
Width: 1000
Flags: HW
LayerCount: 2
Fore
SplineSet
750 130 m 0
 817.083007812 130 871.666992188 75.4169921875 871.666992188 8.3330078125 c 0
 871.666992188 -58.75 817.083007812 -113.333007812 750 -113.333007812 c 0
 682.916992188 -113.333007812 628.333007812 -58.75 628.333007812 8.3330078125 c 0
 628.333007812 17.5 629.583007812 26.6669921875 631.666992188 35.4169921875 c 2
 335 208.75 l 2
 312.5 187.916992188 282.916992188 175 250 175 c 0
 180.833007812 175 125 230.833007812 125 300 c 0
 125 369.166992188 180.833007812 425 250 425 c 0
 282.916992188 425 312.5 412.083007812 335 391.25 c 2
 628.75 562.5 l 2
 626.666992188 572.083007812 625 581.666992188 625 591.666992188 c 0
 625 660.833007812 680.833007812 716.666992188 750 716.666992188 c 0
 819.166992188 716.666992188 875 660.833007812 875 591.666992188 c 0
 875 522.5 819.166992188 466.666992188 750 466.666992188 c 0
 717.083007812 466.666992188 687.5 479.583007812 665 500.416992188 c 2
 371.25 329.166992188 l 2
 373.333007812 319.583007812 375 310 375 300 c 0
 375 290 373.333007812 280.416992188 371.25 270.833007812 c 2
 668.333007812 97.9169921875 l 2
 690 117.5 718.333007812 130 750 130 c 0
EndSplineSet
EndChar

StartChar: S
Encoding: 83 83 79
Width: 1000
Flags: HW
LayerCount: 2
Fore
SplineSet
809.583007812 259.166992188 m 0
 897.5 190.416992188 l 2
 905.416992188 184.166992188 907.5 172.916992188 902.5 163.75 c 2
 819.166992188 19.5830078125 l 2
 814.166992188 10.4169921875 803.333007812 6.6669921875 793.75 10.4169921875 c 2
 690 52.0830078125 l 2
 668.333007812 35.8330078125 645 21.6669921875 619.583007812 11.25 c 2
 603.75 -99.1669921875 l 2
 602.5 -109.166992188 593.75 -116.666992188 583.333007812 -116.666992188 c 2
 416.666992188 -116.666992188 l 2
 406.25 -116.666992188 397.5 -109.166992188 396.25 -99.1669921875 c 2
 380.416992188 11.25 l 2
 355 21.6669921875 331.666992188 35.4169921875 310 52.0830078125 c 2
 206.25 10.4169921875 l 2
 197.083007812 7.0830078125 185.833007812 10.4169921875 180.833007812 19.5830078125 c 2
 97.5 163.75 l 2
 92.5 172.916992188 94.5830078125 184.166992188 102.5 190.416992188 c 2
 190.416992188 259.166992188 l 2
 188.75 272.5 187.5 286.25 187.5 300 c 0
 187.5 313.75 188.75 327.5 190.416992188 340.833007812 c 2
 102.5 409.583007812 l 2
 94.5830078125 415.833007812 92.0830078125 427.083007812 97.5 436.25 c 2
 180.833007812 580.416992188 l 2
 185.833007812 589.583007812 196.666992188 593.333007812 206.25 589.583007812 c 2
 310 547.916992188 l 2
 331.666992188 564.166992188 355 578.333007812 380.416992188 588.75 c 2
 396.25 699.166992188 l 2
 397.5 709.166992188 406.25 716.666992188 416.666992188 716.666992188 c 2
 583.333007812 716.666992188 l 2
 593.75 716.666992188 602.5 709.166992188 603.75 699.166992188 c 2
 619.583007812 588.75 l 2
 645 578.333007812 668.333007812 564.583007812 690 547.916992188 c 2
 793.75 589.583007812 l 2
 802.916992188 592.916992188 814.166992188 589.583007812 819.166992188 580.416992188 c 2
 902.5 436.25 l 2
 907.5 427.083007812 905.416992188 415.833007812 897.5 409.583007812 c 2
 809.583007812 340.833007812 l 2
 811.25 327.5 812.5 314.166992188 812.5 300 c 0
 812.5 285.833007812 811.25 272.5 809.583007812 259.166992188 c 0
500 154.166992188 m 0
 580.416992188 154.166992188 645.833007812 219.583007812 645.833007812 300 c 0
 645.833007812 380.416992188 580.416992188 445.833007812 500 445.833007812 c 0
 419.583007812 445.833007812 354.166992188 380.416992188 354.166992188 300 c 0
 354.166992188 219.583007812 419.583007812 154.166992188 500 154.166992188 c 0
EndSplineSet
EndChar

StartChar: T
Encoding: 84 84 80
Width: 1000
Flags: HW
LayerCount: 2
Fore
SplineSet
125 591.666992188 m 1
 125 637.5 162.5 675 208.333007812 675 c 1
 208.333007812 591.666992188 l 1
 125 591.666992188 l 1
125 258.333007812 m 1
 125 341.666992188 l 1
 208.333007812 341.666992188 l 1
 208.333007812 258.333007812 l 1
 125 258.333007812 l 1
291.666992188 -75 m 1
 291.666992188 8.3330078125 l 1
 375 8.3330078125 l 1
 375 -75 l 1
 291.666992188 -75 l 1
125 425 m 1
 125 508.333007812 l 1
 208.333007812 508.333007812 l 1
 208.333007812 425 l 1
 125 425 l 1
541.666992188 675 m 1
 541.666992188 591.666992188 l 1
 458.333007812 591.666992188 l 1
 458.333007812 675 l 1
 541.666992188 675 l 1
791.666992188 675 m 1
 837.5 675 875 637.5 875 591.666992188 c 1
 791.666992188 591.666992188 l 1
 791.666992188 675 l 1
208.333007812 -75 m 1
 162.5 -75 125 -37.5 125 8.3330078125 c 1
 208.333007812 8.3330078125 l 1
 208.333007812 -75 l 1
125 91.6669921875 m 1
 125 175 l 1
 208.333007812 175 l 1
 208.333007812 91.6669921875 l 1
 125 91.6669921875 l 1
375 675 m 1
 375 591.666992188 l 1
 291.666992188 591.666992188 l 1
 291.666992188 675 l 1
 375 675 l 1
458.333007812 -75 m 1
 458.333007812 8.3330078125 l 1
 541.666992188 8.3330078125 l 1
 541.666992188 -75 l 1
 458.333007812 -75 l 1
791.666992188 258.333007812 m 1
 791.666992188 341.666992188 l 1
 875 341.666992188 l 1
 875 258.333007812 l 1
 791.666992188 258.333007812 l 1
791.666992188 -75 m 1
 791.666992188 8.3330078125 l 1
 875 8.3330078125 l 1
 875 -37.5 837.5 -75 791.666992188 -75 c 1
791.666992188 425 m 1
 791.666992188 508.333007812 l 1
 875 508.333007812 l 1
 875 425 l 1
 791.666992188 425 l 1
791.666992188 91.6669921875 m 1
 791.666992188 175 l 1
 875 175 l 1
 875 91.6669921875 l 1
 791.666992188 91.6669921875 l 1
625 -75 m 1
 625 8.3330078125 l 1
 708.333007812 8.3330078125 l 1
 708.333007812 -75 l 1
 625 -75 l 1
625 591.666992188 m 1
 625 675 l 1
 708.333007812 675 l 1
 708.333007812 591.666992188 l 1
 625 591.666992188 l 1
291.666992188 91.6669921875 m 1
 291.666992188 508.333007812 l 1
 708.333007812 508.333007812 l 1
 708.333007812 91.6669921875 l 1
 291.666992188 91.6669921875 l 1
375 425 m 1
 375 175 l 1
 625 175 l 1
 625 425 l 1
 375 425 l 1
EndSplineSet
EndChar

StartChar: U
Encoding: 85 85 81
Width: 1000
Flags: HW
LayerCount: 2
Fore
SplineSet
808.547851562 300.001953125 m 0
 808.548828125 129.594726562 670.407226562 -8.548828125 500 -8.5498046875 c 2
 113.61328125 -8.5498046875 l 1
 113.61328125 147.631835938 l 1
 231.651367188 147.631835938 l 1
 206.072265625 192.583007812 191.452148438 244.580078125 191.452148438 299.998046875 c 0
 191.451171875 470.405273438 329.592773438 608.548828125 500 608.549804688 c 2
 886.38671875 608.549804688 l 1
 886.38671875 452.368164062 l 1
 768.348632812 452.368164062 l 1
 793.927734375 407.416992188 808.547851562 355.419921875 808.547851562 300.001953125 c 0
538.875976562 337.213867188 m 0
 559.493164062 315.674804688 558.564453125 281.557617188 537.21484375 261.123046875 c 0
 515.674804688 240.506835938 481.557617188 241.435546875 461.124023438 262.784179688 c 0
 440.5078125 284.32421875 441.432617188 318.438476562 462.78515625 338.875976562 c 0
 484.32421875 359.4921875 518.439453125 358.56640625 538.875976562 337.213867188 c 0
613.778320312 181.130859375 m 0
 679.073242188 243.626953125 681.96484375 347.856445312 618.868164062 413.778320312 c 0
 556.375 479.069335938 452.14453125 481.965820312 386.221679688 418.868164062 c 0
 320.9296875 356.375 318.034179688 252.143554688 381.131835938 186.220703125 c 0
 443.627929688 120.92578125 547.857421875 118.03515625 613.778320312 181.130859375 c 0
609.153320312 300 m 0
 609.153320312 271.25390625 597.881835938 242.553710938 575.49609375 221.126953125 c 0
 554.360351562 200.897460938 527.140625 190.846679688 500 190.846679688 c 0
 471.25390625 190.846679688 442.553710938 202.118164062 421.126953125 224.50390625 c 0
 400.897460938 245.639648438 390.846679688 272.859375 390.846679688 300 c 0
 390.846679688 328.74609375 402.118164062 357.446289062 424.50390625 378.873046875 c 0
 445.639648438 399.102539062 472.859375 409.153320312 500 409.153320312 c 0
 528.74609375 409.153320312 557.447265625 397.881835938 578.873046875 375.49609375 c 0
 599.102539062 354.360351562 609.153320312 327.140625 609.153320312 300 c 0
EndSplineSet
EndChar

StartChar: V
Encoding: 86 86 82
Width: 1000
Flags: HW
LayerCount: 2
Fore
SplineSet
500 300 m 0
 407.916992188 300 333.333007812 374.583007812 333.333007812 466.666992188 c 0
 333.333007812 558.75 407.916992188 633.333007812 500 633.333007812 c 0
 592.083007812 633.333007812 666.666992188 558.75 666.666992188 466.666992188 c 0
 666.666992188 374.583007812 592.083007812 300 500 300 c 0
500 216.666992188 m 0
 611.25 216.666992188 833.333007812 160.833007812 833.333007812 50 c 2
 833.333007812 -33.3330078125 l 1
 166.666992188 -33.3330078125 l 1
 166.666992188 50 l 2
 166.666992188 160.833007812 388.75 216.666992188 500 216.666992188 c 0
EndSplineSet
EndChar

StartChar: W
Encoding: 87 87 83
Width: 1000
Flags: HW
LayerCount: 2
Fore
SplineSet
117.703125 288 m 0
 117.703125 490.549804688 287.90234375 654.75 497.8515625 654.75 c 0
 707.801757812 654.75 878 490.549804688 878 288 c 0
 878 85.4501953125 707.801757812 -78.75 497.8515625 -78.75 c 0
 287.90234375 -78.75 117.703125 85.4501953125 117.703125 288 c 0
EndSplineSet
EndChar

StartChar: X
Encoding: 88 88 84
Width: 1000
Flags: HW
LayerCount: 2
Fore
SplineSet
500 466.666992188 m 0
 454.166992188 466.666992188 416.666992188 504.166992188 416.666992188 550 c 0
 416.666992188 595.833007812 454.166992188 633.333007812 500 633.333007812 c 0
 545.833007812 633.333007812 583.333007812 595.833007812 583.333007812 550 c 0
 583.333007812 504.166992188 545.833007812 466.666992188 500 466.666992188 c 0
500 383.333007812 m 0
 545.833007812 383.333007812 583.333007812 345.833007812 583.333007812 300 c 0
 583.333007812 254.166992188 545.833007812 216.666992188 500 216.666992188 c 0
 454.166992188 216.666992188 416.666992188 254.166992188 416.666992188 300 c 0
 416.666992188 345.833007812 454.166992188 383.333007812 500 383.333007812 c 0
500 133.333007812 m 0
 545.833007812 133.333007812 583.333007812 95.8330078125 583.333007812 50 c 0
 583.333007812 4.1669921875 545.833007812 -33.3330078125 500 -33.3330078125 c 0
 454.166992188 -33.3330078125 416.666992188 4.1669921875 416.666992188 50 c 0
 416.666992188 95.8330078125 454.166992188 133.333007812 500 133.333007812 c 0
EndSplineSet
EndChar

StartChar: Y
Encoding: 89 89 85
Width: 1000
Flags: HW
LayerCount: 2
Fore
SplineSet
256.258789062 136.65625 m 6
 256.258789062 114.0546875 254.474609375 94.7109375 250.91015625 78.626953125 c 4
 247.532226562 62.5390625 242.286132812 49.3876953125 235.16796875 39.1796875 c 4
 228.225585938 28.7548828125 219.219726562 21.142578125 208.153320312 16.349609375 c 4
 197.083007812 11.5673828125 183.954101562 9.1806640625 168.758789062 9.1806640625 c 4
 160.3203125 9.1806640625 152.443359375 9.7275390625 145.127929688 10.826171875 c 4
 137.623046875 11.9091796875 130.587890625 13.318359375 124.018554688 15.048828125 c 5
 124.018554688 73.080078125 l 5
 147.088867188 73.080078125 l 5
 148.958984375 65.0380859375 151.115234375 58.5166015625 153.557617188 53.521484375 c 4
 156.001953125 48.521484375 158.532226562 44.6103515625 161.147460938 41.78125 c 4
 163.96484375 38.7490234375 166.784179688 36.7880859375 169.599609375 35.908203125 c 4
 172.604492188 34.82421875 175.513671875 34.2861328125 178.333007812 34.2861328125 c 4
 184.69921875 34.2861328125 189.760742188 35.9150390625 193.51171875 39.1796875 c 4
 197.451171875 42.4443359375 200.455078125 47.439453125 202.5234375 54.169921875 c 4
 204.581054688 60.916015625 205.989257812 69.498046875 206.75 79.9228515625 c 4
 207.499023438 90.134765625 207.87109375 102.306640625 207.87109375 116.447265625 c 6
 207.87109375 431.3515625 l 5
 173.825195312 431.3515625 l 5
 173.825195312 447.966796875 l 5
 180.956054688 449.280273438 185.640625 450.26171875 187.885742188 450.913085938 c 4
 190.329101562 451.778320312 192.578125 452.970703125 194.633789062 454.484375 c 4
 196.890625 456.017578125 198.765625 458.190429688 200.26171875 461.005859375 c 4
 201.956054688 463.833984375 203.366210938 467.967773438 204.48828125 473.39453125 c 4
 205.794921875 479.041992188 206.829101562 486.870117188 207.592773438 496.875976562 c 4
 209.274414062 520.560546875 212.932617188 539.791992188 218.56640625 554.580078125 c 4
 224.375 569.353515625 232.717773438 581.953125 243.599609375 592.37890625 c 4
 254.66796875 602.818359375 266.391601562 610.107421875 278.768554688 614.23828125 c 4
 291.34375 618.580078125 306.072265625 620.755859375 322.948242188 620.755859375 c 4
 337.766601562 620.755859375 350.338867188 619.55859375 360.657226562 617.16015625 c 5
 360.657226562 558.155273438 l 5
 332.799804688 558.155273438 l 5
 329.236328125 570.979492188 325.018554688 579.997070312 320.143554688 585.208984375 c 4
 315.444335938 590.639648438 308.78125 593.352539062 300.157226562 593.352539062 c 4
 293.962890625 593.352539062 288.708984375 592.37890625 284.39453125 590.430664062 c 4
 280.26953125 588.48046875 276.423828125 585.44140625 272.859375 581.3125 c 4
 269.29296875 577.182617188 266.204101562 571.635742188 263.584960938 564.676757812 c 4
 261.142578125 557.713867188 259.268554688 549.01953125 257.958984375 538.59375 c 4
 256.823242188 528.385742188 256.258789062 515.021484375 256.258789062 498.501953125 c 6
 256.258789062 464.27734375 l 5
 323.509765625 464.27734375 l 5
 323.509765625 431.3515625 l 5
 256.258789062 431.3515625 l 5
 256.258789062 136.65625 l 6
411.208007812 317.475585938 m 4
 411.208007812 255.984375 419.69921875 205.303710938 436.681640625 165.42578125 c 4
 453.825195312 125.534179688 479.90625 98.826171875 514.927734375 85.30859375 c 5
 509.479492188 65.00390625 l 5
 465.046875 78.5400390625 431.000976562 107.70703125 407.342773438 152.501953125 c 4
 383.68359375 197.130859375 371.853515625 251.237304688 371.853515625 314.829101562 c 4
 371.853515625 378.248046875 383.68359375 432.366210938 407.342773438 477.178710938 c 4
 431.146484375 522.145507812 465.193359375 551.39453125 509.479492188 564.930664062 c 5
 515.608398438 544.626953125 l 5
 480.1328125 531.110351562 453.825195312 504.670898438 436.681640625 465.322265625 c 4
 419.69921875 426.138671875 411.208007812 376.857421875 411.208007812 317.475585938 c 4
643.000976562 336.174804688 m 5
 672.559570312 379.657226562 l 6
 675.750976562 384.405273438 678.329101562 388.977539062 680.290039062 393.369140625 c 4
 682.266601562 397.934570312 683.25390625 402.587890625 683.25390625 407.336914062 c 4
 683.25390625 411.376953125 681.967773438 414.708007812 679.389648438 417.338867188 c 4
 676.8125 419.985351562 672.794921875 421.91796875 667.333007812 423.139648438 c 5
 667.333007812 436.061523438 l 5
 741.715820312 436.061523438 l 5
 741.715820312 423.139648438 l 5
 735.946289062 421.206054688 730.033203125 417.432617188 723.96875 411.81640625 c 4
 718.056640625 406.186523438 710.778320312 397.134765625 702.140625 384.66796875 c 6
 655.055664062 317.73046875 l 5
 706.908203125 236.821289062 l 6
 714.344726562 225.236328125 721.020507812 216.362304688 726.932617188 210.208984375 c 4
 732.848632812 204.067382812 738.762695312 199.67578125 744.678710938 197.029296875 c 5
 744.678710938 184.126953125 l 5
 653.233398438 184.126953125 l 5
 653.233398438 197.029296875 l 5
 665.8125 198.791015625 672.100585938 204.244140625 672.100585938 213.387695312 c 4
 672.100585938 217.06640625 671.571289062 220.578125 670.516601562 223.920898438 c 4
 669.450195312 227.259765625 667.479492188 231.127929688 664.609375 235.520507812 c 6
 631.625 288.75 l 5
 596.59765625 236.033203125 l 6
 594.021484375 232.181640625 591.971679688 228.583007812 590.451171875 225.244140625 c 4
 589.086914062 222.0703125 588.407226562 218.46875 588.407226562 214.4296875 c 4
 588.407226562 209.681640625 589.768554688 205.731445312 592.493164062 202.576171875 c 4
 595.375976562 199.588867188 599.848632812 197.741210938 605.911132812 197.029296875 c 5
 605.911132812 184.126953125 l 5
 529.947265625 184.126953125 l 5
 529.947265625 197.029296875 l 6
 534.953125 199.146484375 539.426757812 201.786132812 543.366210938 204.940429688 c 4
 547.465820312 208.111328125 551.557617188 212.158203125 555.643554688 217.07421875 c 4
 559.888671875 222.1640625 565.420898438 229.54296875 572.24609375 239.211914062 c 6
 619.5703125 307.1953125 l 5
 571.125 384.135742188 l 6
 564.448242188 394.684570312 559.140625 402.326171875 555.201171875 407.059570312 c 4
 551.249023438 411.807617188 547.603515625 415.412109375 544.267578125 417.870117188 c 4
 540.943359375 420.329101562 537.610351562 422.087890625 534.2734375 423.139648438 c 6
 534.2734375 436.061523438 l 5
 623.434570312 436.061523438 l 5
 623.434570312 423.139648438 l 5
 611.458984375 421.034179688 605.469726562 415.58984375 605.469726562 406.805664062 c 4
 605.469726562 402.768554688 606.224609375 398.728515625 607.731445312 394.692382812 c 4
 609.401367188 390.638671875 611.905273438 386.151367188 615.243164062 381.235351562 c 6
 643.000976562 336.174804688 l 5
863.3984375 317.475585938 m 4
 863.3984375 376.857421875 854.90625 426.138671875 837.923828125 465.322265625 c 4
 820.943359375 504.670898438 794.633789062 531.110351562 758.99609375 544.626953125 c 5
 765.146484375 564.930664062 l 5
 809.416992188 551.39453125 843.385742188 522.145507812 867.043945312 477.178710938 c 4
 890.848632812 432.366210938 902.752929688 378.248046875 902.752929688 314.829101562 c 4
 902.752929688 251.237304688 890.922851562 197.130859375 867.263671875 152.501953125 c 4
 843.60546875 107.70703125 809.56640625 78.5400390625 765.146484375 65.00390625 c 5
 759.677734375 85.30859375 l 5
 794.712890625 98.826171875 820.719726562 125.534179688 837.705078125 165.42578125 c 4
 854.833007812 205.303710938 863.3984375 255.984375 863.3984375 317.475585938 c 4
EndSplineSet
EndChar

StartChar: Z
Encoding: 90 90 86
Width: 1000
Flags: HW
LayerCount: 2
Fore
SplineSet
261.3515625 61.3515625 m 0
 311.732421875 10.9697265625 393.639648438 10.9697265625 444.020507812 61.3515625 c 2
 561.872070312 179.202148438 l 1
 617.8515625 123.223632812 l 1
 500 5.3720703125 l 2
 418.682617188 -75.9453125 286.689453125 -75.9453125 205.372070312 5.3720703125 c 0
 124.0546875 86.689453125 124.0546875 218.682617188 205.372070312 300 c 2
 323.223632812 417.8515625 l 1
 379.202148438 361.872070312 l 1
 261.3515625 244.020507812 l 2
 210.969726562 193.639648438 210.969726562 111.732421875 261.3515625 61.3515625 c 0
411.611328125 152.686523438 m 1
 352.686523438 211.611328125 l 1
 588.388671875 447.313476562 l 1
 647.313476562 388.388671875 l 1
 411.611328125 152.686523438 l 1
500 594.627929688 m 2
 581.317382812 675.9453125 713.310546875 675.9453125 794.627929688 594.627929688 c 0
 875.9453125 513.310546875 875.9453125 381.317382812 794.627929688 300 c 2
 676.776367188 182.1484375 l 1
 620.797851562 238.127929688 l 1
 738.6484375 355.979492188 l 2
 789.030273438 406.360351562 789.030273438 488.267578125 738.6484375 538.6484375 c 0
 688.267578125 589.030273438 606.360351562 589.030273438 555.979492188 538.6484375 c 2
 438.127929688 420.797851562 l 1
 382.1484375 476.776367188 l 1
 500 594.627929688 l 2
EndSplineSet
EndChar

StartChar: bracketleft
Encoding: 91 91 87
Width: 1000
Flags: HW
LayerCount: 2
Fore
SplineSet
375 125 m 1
 816.666992188 566.666992188 l 1
 875 508.333007812 l 1
 375 8.3330078125 l 1
 141.666992188 241.666992188 l 1
 200 300 l 1
 375 125 l 1
EndSplineSet
EndChar

StartChar: backslash
Encoding: 92 92 88
Width: 1000
Flags: HW
LayerCount: 2
Fore
SplineSet
750 633.333007812 m 2
 795.833007812 633.333007812 833.333007812 595.833007812 833.333007812 550 c 2
 833.333007812 50 l 2
 833.333007812 4.1669921875 795.833007812 -33.3330078125 750 -33.3330078125 c 2
 250 -33.3330078125 l 2
 204.166992188 -33.3330078125 166.666992188 4.1669921875 166.666992188 50 c 2
 166.666992188 550 l 2
 166.666992188 595.833007812 204.166992188 633.333007812 250 633.333007812 c 2
 750 633.333007812 l 2
750 50 m 1
 750 550 l 1
 250 550 l 1
 250 50 l 1
 750 50 l 1
EndSplineSet
EndChar

StartChar: bracketright
Encoding: 93 93 89
Width: 1000
Flags: HW
LayerCount: 2
Fore
SplineSet
125 81.25 m 1
 585.833007812 542.083007812 l 1
 742.083007812 385.833007812 l 1
 281.25 -75 l 1
 125 -75 l 1
 125 81.25 l 1
862.916992188 506.666992188 m 0
 786.666992188 430.416992188 l 1
 630.416992188 586.666992188 l 1
 706.666992188 662.916992188 l 2
 722.916992188 679.166992188 749.166992188 679.166992188 765.416992188 662.916992188 c 2
 862.916992188 565.416992188 l 2
 879.166992188 549.166992188 879.166992188 522.916992188 862.916992188 506.666992188 c 0
EndSplineSet
EndChar

StartChar: K
Encoding: 75 75 255
Width: 1000
Flags: HW
LayerCount: 2
Fore
SplineSet
242.428710938 675.280273438 m 5
 308.41796875 561.077148438 l 5
 258.924804688 561.077148438 l 5
 258.921875 59.232421875 l 5
 760.587890625 59.232421875 l 5
 760.587890625 108.743164062 l 5
 874.749023438 42.7294921875 l 5
 760.587890625 -23.28515625 l 5
 760.587890625 26.2255859375 l 5
 226 26.2255859375 l 5
 226 204.315429688 225.849609375 382.848632812 225.930664062 561.077148438 c 5
 176.438476562 561.077148438 l 5
 242.428710938 675.280273438 l 5
623.877929688 572.883789062 m 4
 647.958984375 572.884765625 667.482421875 553.354492188 667.481445312 529.264648438 c 4
 667.48046875 505.173828125 647.958007812 485.647460938 623.877929688 485.647460938 c 4
 599.796875 485.647460938 580.274414062 505.173828125 580.2734375 529.264648438 c 4
 580.2734375 553.354492188 599.794921875 572.884765625 623.877929688 572.883789062 c 4
457.18359375 532.17578125 m 4
 481.264648438 532.176757812 500.786132812 512.649414062 500.787109375 488.559570312 c 4
 500.7890625 464.46875 481.266601562 444.939453125 457.18359375 444.940429688 c 4
 433.103515625 444.94140625 413.583007812 464.470703125 413.583984375 488.559570312 c 4
 413.584960938 512.647460938 433.104492188 532.174804688 457.18359375 532.17578125 c 4
567.833984375 371.452148438 m 4
 591.916015625 371.452148438 611.439453125 351.922851562 611.4375 327.83203125 c 4
 611.439453125 303.741210938 591.916015625 284.2109375 567.833984375 284.211914062 c 4
 543.752929688 284.213867188 524.233398438 303.7421875 524.233398438 327.83203125 c 4
 524.233398438 351.921875 543.752929688 371.451171875 567.833984375 371.452148438 c 4
395.423828125 326.004882812 m 4
 419.504882812 326.005859375 439.028320312 306.475585938 439.026367188 282.384765625 c 4
 439.025390625 258.294921875 419.50390625 238.768554688 395.423828125 238.768554688 c 4
 371.34375 238.770507812 351.82421875 258.296875 351.823242188 282.384765625 c 4
 351.822265625 306.474609375 371.342773438 326.00390625 395.423828125 326.004882812 c 4
709.418945312 284.415039062 m 4
 733.498046875 284.4140625 753.017578125 264.88671875 753.018554688 240.798828125 c 4
 753.01953125 216.708984375 733.499023438 197.1796875 709.418945312 197.178710938 c 4
 685.336914062 197.178710938 665.814453125 216.708007812 665.815429688 240.798828125 c 4
 665.81640625 264.887695312 685.337890625 284.415039062 709.418945312 284.415039062 c 4
509.932617188 222.534179688 m 4
 534.015625 222.53515625 553.537109375 203.004882812 553.536132812 178.9140625 c 4
 553.537109375 154.823242188 534.015625 135.293945312 509.932617188 135.293945312 c 4
 485.852539062 135.294921875 466.331054688 154.82421875 466.333007812 178.9140625 c 4
 466.331054688 203.00390625 485.852539062 222.532226562 509.932617188 222.534179688 c 4
348.486328125 194.900390625 m 4
 372.56640625 194.899414062 392.087890625 175.370117188 392.086914062 151.28125 c 4
 392.084960938 127.193359375 372.565429688 107.666015625 348.486328125 107.665039062 c 4
 324.40625 107.6640625 304.883789062 127.192382812 304.8828125 151.28125 c 4
 304.881835938 175.373046875 324.405273438 194.901367188 348.486328125 194.900390625 c 4
EndSplineSet
EndChar
